<svg width="451" height="720" viewBox="0 0 451 720" fill="none" xmlns="http://www.w3.org/2000/svg">
<path d="M36.3231 186.83H29V305.617H173.019C186.444 305.617 191.326 323.986 179.121 330.109L151.05 343.58C113.214 361.949 75.379 371.746 36.3231 371.746H29V490.533H169.357C182.783 490.533 187.665 508.902 175.46 515.025L146.168 528.496C110.773 545.641 72.938 554.213 36.3231 554.213H29V673H169.357L185.224 653.406C253.571 573.807 332.904 532.17 415.897 532.17H422V413.383H281.643C268.217 413.383 263.335 395.014 275.54 388.891L304.833 375.42C340.227 358.275 378.062 349.703 414.677 349.703H420.78V230.916H277.981C264.556 230.916 259.674 212.547 271.879 206.424L299.95 192.953C337.786 174.584 375.621 164.787 414.677 164.787H420.78V46H280.423L264.556 65.5938C198.649 145.193 118.096 186.83 36.3231 186.83Z" fill="#FCF9E8"/>
</svg>
